<?xml version="1.0" encoding="UTF-8"?>
<svg version="1.1" xmlns="http://www.w3.org/2000/svg" width="224" height="172">
<path d="M0 0 C73.92 0 147.84 0 224 0 C224 56.76 224 113.52 224 172 C150.08 172 76.16 172 0 172 C0 115.24 0 58.48 0 0 Z " fill="#D19A48" transform="translate(0,0)"/>
<path d="M0 0 C73.92 0 147.84 0 224 0 C224 56.76 224 113.52 224 172 C150.08 172 76.16 172 0 172 C0 115.24 0 58.48 0 0 Z M57 22 C56.60090144 26.6800086 56.60090144 26.6800086 58.1875 30.9375 C60.54570865 32.31989817 62.30884194 32.07487674 65 32 C64.75765625 32.804375 64.5153125 33.60875 64.265625 34.4375 C59.3875843 51.54816585 57.05892525 69.08104695 55.25 86.75 C55.12230225 87.9862915 54.99460449 89.22258301 54.86303711 90.49633789 C54.13937989 98.02227126 53.84360142 105.44073546 54 113 C53.22333984 112.97929443 52.44667969 112.95858887 51.64648438 112.93725586 C43.57909909 112.75603817 35.94571973 113.68369101 28 115 C27.21560547 115.12842285 26.43121094 115.2568457 25.62304688 115.38916016 C20.41242109 116.24241531 15.20528044 117.11474822 10 118 C9.97284617 119.74991334 9.95353449 121.49994945 9.9375 123.25 C9.92589844 124.22453125 9.91429687 125.1990625 9.90234375 126.203125 C10.00114941 129.70489707 10.00114941 129.70489707 11 133 C12.99848128 134.71060735 12.99848128 134.71060735 15.4375 136.125 C17.91170166 137.65797246 19.93721412 138.93721412 22 141 C18.7 141 15.4 141 12 141 C12 144.63 12 148.26 12 152 C21.78600519 155.79755425 31.79991332 158.59060091 41.90625 161.39916992 C43.61699722 161.89009214 45.31154076 162.43718025 47 163 C55.88645314 163.83778394 64.80716019 162.03725481 73.5625 160.6875 C75.09742198 160.45688033 76.63241596 160.22673938 78.16748047 159.99707031 C85.67559113 158.86538606 93.16397947 157.66253667 100.625 156.25 C106.78577901 155.10050455 112.84035655 154.54390968 119.09228516 154.29003906 C122.32813676 154.42675374 122.32813676 154.42675374 125 153 C126.46889113 152.86656681 127.94364607 152.79654661 129.41796875 152.75390625 C130.33690918 152.72224365 131.25584961 152.69058105 132.20263672 152.65795898 C133.1876416 152.62645752 134.17264648 152.59495605 135.1875 152.5625 C143.92200158 152.2343005 152.38165438 151.51482867 161 150 C160.97679687 150.69867188 160.95359375 151.39734375 160.9296875 152.1171875 C160.91164062 153.02726563 160.89359375 153.93734375 160.875 154.875 C160.85179687 155.77992188 160.82859375 156.68484375 160.8046875 157.6171875 C160.75675164 160.18806994 160.75675164 160.18806994 163 162 C165.9292303 162.18768653 168.76228397 162.25553641 171.69140625 162.23046875 C172.55185043 162.23001053 173.41229462 162.22955231 174.29881287 162.2290802 C176.11873757 162.22605705 177.93865967 162.21816888 179.75854492 162.20581055 C182.55461724 162.18755148 185.35035866 162.18530085 188.14648438 162.18554688 C189.91146122 162.1806319 191.6764358 162.17480367 193.44140625 162.16796875 C194.28304825 162.16685593 195.12469025 162.1657431 195.99183655 162.16459656 C199.80461385 162.50420295 199.80461385 162.50420295 203 161 C203.24252825 156.77964095 203.22853321 152.5534618 203.24023438 148.3269043 C203.24991343 146.20646545 203.28091033 144.08700686 203.3125 141.96679688 C203.31903265 140.61719326 203.32428209 139.2675827 203.328125 137.91796875 C203.34214355 136.07368286 203.34214355 136.07368286 203.35644531 134.19213867 C202.96973744 130.72898422 202.20470688 129.58711939 200 127 C199.58134543 122.89718519 199.67420899 121.48868651 202 118 C202.42784509 112.51271697 201.42160939 107.75773113 200.0625 102.5 C199.0132533 98.35491939 197.98689707 94.27576864 197.43359375 90.03125 C197.32749697 87.12754509 197.32749697 87.12754509 196 86 C193.92737924 85.91232888 191.85179706 85.89304127 189.77734375 85.90234375 C188.51728516 85.90556641 187.25722656 85.90878906 185.95898438 85.91210938 C184.61848891 85.92046597 183.27799412 85.92893093 181.9375 85.9375 C180.59310058 85.9425134 179.2486994 85.94707658 177.90429688 85.95117188 C174.60282059 85.96300512 171.30143197 85.97949029 168 86 C167.91674469 85.29922333 167.83348938 84.59844666 167.74771118 83.87643433 C166.95995174 77.25527226 166.16612433 70.63486886 165.36556435 64.01524162 C164.95425297 60.61243641 164.54524924 57.20938756 164.14160156 53.80566406 C163.67688024 49.88782227 163.20197324 45.97124714 162.7265625 42.0546875 C162.58376862 40.83884979 162.44097473 39.62301208 162.29385376 38.37033081 C162.15385956 37.22960114 162.01386536 36.08887146 161.86962891 34.91357422 C161.74971588 33.91429901 161.62980286 32.9150238 161.5062561 31.88546753 C160.44372481 25.82944268 159.0833684 21.76817653 154 18 C151.0847675 17.30020097 148.26884715 17.3259157 145.28173828 17.36889648 C143.98077713 17.35816353 143.98077713 17.35816353 142.65353394 17.34721375 C139.79192107 17.33033201 136.93187634 17.34972923 134.0703125 17.37109375 C132.07640453 17.37026485 130.08249662 17.36780468 128.08859253 17.36378479 C123.91057758 17.36092694 119.73309874 17.3756242 115.55517578 17.40307617 C110.20964108 17.43711446 104.86506772 17.43115519 99.51948738 17.4124136 C95.40152026 17.40182354 91.28377521 17.41080043 87.1658287 17.42579842 C85.19553157 17.43096894 83.22521112 17.43051218 81.25491714 17.42425346 C78.49512493 17.41877883 75.73668838 17.43924966 72.97705078 17.46655273 C72.16850647 17.46002686 71.35996216 17.45350098 70.5269165 17.44677734 C64.92584485 17.54059509 61.66004088 18.88162005 57 22 Z " fill="#198754" transform="translate(0,0)"/>
<path d="M0 0 C4.25247094 4.05486541 4.8448647 8.20872733 5.4375 13.8125 C5.54747314 14.72016113 5.65744629 15.62782227 5.77075195 16.56298828 C6.03125832 18.71685144 6.28476556 20.87156689 6.53320312 23.02685547 C7.0879404 27.80459967 7.69374395 32.57582138 8.296875 37.34765625 C9.20897284 44.57204255 10.11570807 51.7970368 11.01171875 59.0234375 C11.11156067 59.82866348 11.21140259 60.63388947 11.31427002 61.46351624 C11.54298462 63.30899373 11.77151524 65.15449403 12 67 C12.84296631 66.99476318 13.68593262 66.98952637 14.55444336 66.98413086 C17.67227936 66.96712174 20.79009177 66.95456594 23.90795898 66.94506836 C25.25920386 66.94002943 26.61044326 66.93319823 27.96166992 66.92456055 C29.90020434 66.91247581 31.838778 66.90730172 33.77734375 66.90234375 C35.52905884 66.89448853 35.52905884 66.89448853 37.31616211 66.88647461 C40 67 40 67 41 68 C41.35356674 69.43450789 41.65719565 70.8814273 41.9375 72.33203125 C42.11023438 73.21310547 42.28296875 74.09417969 42.4609375 75.00195312 C42.72777344 76.39317383 42.72777344 76.39317383 43 77.8125 C43.35333668 79.63167182 43.70747456 81.45068825 44.0625 83.26953125 C44.21847656 84.08010986 44.37445313 84.89068848 44.53515625 85.72583008 C44.83310066 87.18347301 45.16736901 88.63443314 45.546875 90.07299805 C46.25682093 93.09218084 46.16819479 95.91642882 46 99 C45.34 99.99 44.68 100.98 44 102 C43.5832448 104.95788569 43.5832448 104.95788569 44 108 C44.49467773 108.58048096 44.98935547 109.16096191 45.49902344 109.7590332 C47.59014681 112.88109265 47.35649481 115.18562642 47.328125 118.91796875 C47.32625183 119.57581863 47.32437866 120.23366852 47.32244873 120.91145325 C47.31574812 122.29575706 47.30187313 123.68004258 47.28125 125.06420898 C47.24995187 127.19076993 47.24026293 129.3165904 47.234375 131.44335938 C47.16359463 141.83640537 47.16359463 141.83640537 46 143 C43.13905783 143.11349161 40.30316544 143.16418492 37.44140625 143.16796875 C36.58191879 143.17129715 35.72243134 143.17462555 34.8368988 143.17805481 C33.01521339 143.1831277 31.19351864 143.18546302 29.37182617 143.18530273 C26.5778071 143.18748803 23.78418343 143.20563644 20.99023438 143.22460938 C19.22395969 143.2275434 17.45768312 143.22952814 15.69140625 143.23046875 C14.85178848 143.23765427 14.01217072 143.24483978 13.14710999 143.25224304 C7.22882181 143.22882181 7.22882181 143.22882181 5 141 C4.72549455 137.65103346 4.91371196 134.36523337 5 131 C0.71 131.33 -3.58 131.66 -8 132 C-9.88006177 103.52527803 -11.07209136 75.10396117 -11.125 46.5625 C-11.12767883 45.74576813 -11.13035767 44.92903625 -11.13311768 44.08755493 C-11.15336639 36.00310139 -11.16024404 28.02041716 -10 20 C-11.35363647 19.91697632 -11.35363647 19.91697632 -12.73461914 19.83227539 C-16.10992862 19.62390689 -19.48506085 19.41300811 -22.86010742 19.20043945 C-24.31577421 19.10926866 -25.77150299 19.01908186 -27.22729492 18.92993164 C-29.33008966 18.80098328 -31.43262967 18.6683975 -33.53515625 18.53515625 C-35.42826538 18.41732788 -35.42826538 18.41732788 -37.35961914 18.29711914 C-40.94680729 18.00434146 -44.44466093 17.54682116 -48 17 C-48 15.68 -48 14.36 -48 13 C-47.16101669 13.00999275 -47.16101669 13.00999275 -46.30508423 13.02018738 C-40.49804416 13.08641687 -34.69111087 13.13174871 -28.88378906 13.16479492 C-26.71479944 13.179907 -24.5458405 13.20039735 -22.37695312 13.22631836 C-19.26424604 13.26259534 -16.15194195 13.2797019 -13.0390625 13.29296875 C-12.065065 13.30845261 -11.0910675 13.32393646 -10.08755493 13.33988953 C-9.18677216 13.34011612 -8.28598938 13.34034271 -7.35791016 13.34057617 C-6.16544174 13.35056892 -6.16544174 13.35056892 -4.94888306 13.36076355 C-4.30575165 13.24171158 -3.66262024 13.12265961 -3 13 C-0.70366176 9.55549263 -0.45983515 7.06187717 0 3 C-0.66 3 -1.32 3 -2 3 C-1.979375 4.11375 -1.95875 5.2275 -1.9375 6.375 C-2 10 -2 10 -3 12 C-3.66 12 -4.32 12 -5 12 C-5 10.68 -5 9.36 -5 8 C-5.33 8.66 -5.66 9.32 -6 10 C-6.66 10 -7.32 10 -8 10 C-8.04254356 8.00045254 -8.04080783 5.99958364 -8 4 C-7.67 3.67 -7.34 3.34 -7 3 C-7.66 2.67 -8.32 2.34 -9 2 C-9.020625 3.27875 -9.04125 4.5575 -9.0625 5.875 C-9.07410156 6.59429688 -9.08570313 7.31359375 -9.09765625 8.0546875 C-9.12649242 10.08185404 -9.12649242 10.08185404 -8 12 C-8.99 12 -9.98 12 -11 12 C-12.40457737 9.19084526 -12.24895157 7.11189466 -12 4 C-9.04701367 -1.20288067 -5.54471318 -1.58420376 0 0 Z " fill="#D04A49" transform="translate(156,19)"/>
<path d="M0 0 C0.09765625 6.15234375 0.09765625 6.15234375 0 8 C-1 9 -1 9 -4.0625 9.0625 C-5.031875 9.041875 -6.00125 9.02125 -7 9 C-7.33 9.99 -7.66 10.98 -8 12 C-8 11.34 -8 10.68 -8 10 C-12.33522216 10.41992964 -16.66763812 10.86409385 -21 11.3125 C-22.22074219 11.43044922 -23.44148438 11.54839844 -24.69921875 11.66992188 C-31.28124963 12.36370351 -36.94346652 13.29727194 -43 16 C-39.70841135 16.05905417 -36.41696244 16.09394375 -33.125 16.125 C-32.2071875 16.14175781 -31.289375 16.15851563 -30.34375 16.17578125 C-24.68631296 16.21562236 -19.58748273 15.69517709 -14.08935547 14.33544922 C-12 14 -12 14 -9 15 C-10 18 -10 18 -11.56640625 19.1328125 C-16.4608149 21.56564968 -20.52489967 22.71680516 -26 23 C-26.66 22.67 -27.32 22.34 -28 22 C-28 22.66 -28 23.32 -28 24 C-26.63681641 23.87431641 -26.63681641 23.87431641 -25.24609375 23.74609375 C-16.01239455 22.99792735 -7.22908678 23.14909129 2 24 C2 25.98 2 27.96 2 30 C9.26 30 16.52 30 24 30 C24 30.33 24 30.66 24 31 C23.00818726 31.03758423 23.00818726 31.03758423 21.99633789 31.07592773 C19.01817695 31.19153102 16.0403608 31.31441754 13.0625 31.4375 C12.02158203 31.47681641 10.98066406 31.51613281 9.90820312 31.55664062 C8.91884766 31.59853516 7.92949219 31.64042969 6.91015625 31.68359375 C5.99371338 31.72025146 5.07727051 31.75690918 4.13305664 31.79467773 C2.0179272 31.77003864 2.0179272 31.77003864 1 33 C-1.28517772 33.16662158 -3.57406218 33.28259423 -5.86328125 33.37890625 C-15.42226655 33.87764357 -24.754891 35.37086098 -34.1875 36.9375 C-35.83516895 37.20580076 -37.48295536 37.47338119 -39.13085938 37.74023438 C-42.30123295 38.25427728 -45.47110743 38.77123427 -48.640625 39.29052734 C-65.62202192 42.06413068 -76.34482508 42.26932567 -92.64208984 36.77392578 C-97.18740195 35.28203933 -101.79997625 34.03664601 -106.41015625 32.76171875 C-109 32 -109 32 -111 31 C-111 27.37 -111 23.74 -111 20 C-107.37 20 -103.74 20 -100 20 C-106.29244532 15.19304367 -106.29244532 15.19304367 -113 11 C-112.67 10.34 -112.34 9.68 -112 9 C-103.05264014 9.20851898 -95.31183444 11.59845141 -86.9140625 14.38330078 C-82.65747757 15.75474638 -78.3263762 16.87257569 -74 18 C-74 15.36 -74 12.72 -74 10 C-61.7899338 7.66245792 -49.54958379 5.54377224 -37.26412964 3.64413452 C-35.86182848 3.42673233 -34.45989414 3.20694775 -33.05838013 2.98452759 C-22.09432393 1.25041246 -11.11872687 0 0 0 Z " fill="#887851" transform="translate(123,121)"/>
<path d="M0 0 C4.25247094 4.05486541 4.8448647 8.20872733 5.4375 13.8125 C5.54747314 14.72016113 5.65744629 15.62782227 5.77075195 16.56298828 C6.03125832 18.71685144 6.28476556 20.87156689 6.53320312 23.02685547 C7.0879404 27.80459967 7.69374395 32.57582138 8.296875 37.34765625 C9.54456601 47.23015076 10.775222 57.11463762 12 67 C21.24 67 30.48 67 40 67 C40.33 68.65 40.66 70.3 41 72 C31.43 72 21.86 72 12 72 C11.34 75.96 10.68 79.92 10 84 C9.62875 85.60875 9.2575 87.2175 8.875 88.875 C8.08788761 92.3233019 7.66151478 95.44590523 8 99 C8.99 100.485 8.99 100.485 10 102 C10.3125 105 10.3125 105 10 108 C8.5625 109.6875 8.5625 109.6875 7 111 C6.13580777 113.59257669 5.82419068 115.34037707 5.68359375 118.01171875 C5.62075195 119.14770508 5.62075195 119.14770508 5.55664062 120.30664062 C5.51732422 121.09232422 5.47800781 121.87800781 5.4375 122.6875 C5.37272461 123.88342773 5.37272461 123.88342773 5.30664062 125.10351562 C5.20072632 127.06881447 5.09987449 129.03438496 5 131 C0.71 131.33 -3.58 131.66 -8 132 C-9.88006177 103.52527803 -11.07209136 75.10396117 -11.125 46.5625 C-11.12767883 45.74576813 -11.13035767 44.92903625 -11.13311768 44.08755493 C-11.15336639 36.00310139 -11.16024404 28.02041716 -10 20 C-11.35363647 19.91697632 -11.35363647 19.91697632 -12.73461914 19.83227539 C-16.10992862 19.62390689 -19.48506085 19.41300811 -22.86010742 19.20043945 C-24.31577421 19.10926866 -25.77150299 19.01908186 -27.22729492 18.92993164 C-29.33008966 18.80098328 -31.43262967 18.6683975 -33.53515625 18.53515625 C-35.42826538 18.41732788 -35.42826538 18.41732788 -37.35961914 18.29711914 C-40.94680729 18.00434146 -44.44466093 17.54682116 -48 17 C-48 15.68 -48 14.36 -48 13 C-47.16101669 13.00999275 -47.16101669 13.00999275 -46.30508423 13.02018738 C-40.49804416 13.08641687 -34.69111087 13.13174871 -28.88378906 13.16479492 C-26.71479944 13.179907 -24.5458405 13.20039735 -22.37695312 13.22631836 C-19.26424604 13.26259534 -16.15194195 13.2797019 -13.0390625 13.29296875 C-12.065065 13.30845261 -11.0910675 13.32393646 -10.08755493 13.33988953 C-9.18677216 13.34011612 -8.28598938 13.34034271 -7.35791016 13.34057617 C-6.16544174 13.35056892 -6.16544174 13.35056892 -4.94888306 13.36076355 C-4.30575165 13.24171158 -3.66262024 13.12265961 -3 13 C-0.70366176 9.55549263 -0.45983515 7.06187717 0 3 C-0.66 3 -1.32 3 -2 3 C-1.979375 4.11375 -1.95875 5.2275 -1.9375 6.375 C-2 10 -2 10 -3 12 C-3.66 12 -4.32 12 -5 12 C-5 10.68 -5 9.36 -5 8 C-5.33 8.66 -5.66 9.32 -6 10 C-6.66 10 -7.32 10 -8 10 C-8.04254356 8.00045254 -8.04080783 5.99958364 -8 4 C-7.67 3.67 -7.34 3.34 -7 3 C-7.66 2.67 -8.32 2.34 -9 2 C-9.020625 3.27875 -9.04125 4.5575 -9.0625 5.875 C-9.07410156 6.59429688 -9.08570313 7.31359375 -9.09765625 8.0546875 C-9.12649242 10.08185404 -9.12649242 10.08185404 -8 12 C-8.99 12 -9.98 12 -11 12 C-12.40457737 9.19084526 -12.24895157 7.11189466 -12 4 C-9.04701367 -1.20288067 -5.54471318 -1.58420376 0 0 Z " fill="#8E6931" transform="translate(156,19)"/>
<path d="M0 0 C15.38883591 0.57101432 30.50428085 3.98837483 45.40722656 7.69262695 C48.58710384 8.47632582 51.65926743 9.08224394 54.9140625 9.48828125 C56.44160156 9.74158203 56.44160156 9.74158203 58 10 C58.495 10.99 58.495 10.99 59 12 C55.55294878 13.14901707 52.6654783 13.22288444 49.03125 13.37890625 C39.41097783 13.88751402 29.99896378 15.39130751 20.5 16.9375 C17.17767196 17.47118005 13.85466261 18.00046227 10.53125 18.52734375 C9.73227295 18.65450775 8.9332959 18.78167175 8.11010742 18.91268921 C0.4274708 20.12028282 -7.27620553 21.09482596 -15 22 C-15 24.64 -15 27.28 -15 30 C-25.13703345 28.62307274 -34.84473403 25.57581415 -44.63085938 22.6953125 C-47.74923051 21.78011042 -50.87387112 20.88829892 -54 20 C-54 16.37 -54 12.74 -54 9 C-42.65574983 6.91234285 -31.52898621 5.4555049 -20 5 C-20 5.66 -20 6.32 -20 7 C-19.11248047 6.96519531 -19.11248047 6.96519531 -18.20703125 6.9296875 C-13.52203753 6.82268927 -10.34732978 7.16954536 -6 9 C-2.37436186 9.33380814 -2.37436186 9.33380814 1 9 C1.66 8.34 2.32 7.68 3 7 C2.67028521 3.70285207 2.3773161 2.3773161 0 0 Z " fill="#D9C38B" transform="translate(64,109)"/>
<path d="M0 0 C0.09765625 6.15234375 0.09765625 6.15234375 0 8 C-1 9 -1 9 -4.0625 9.0625 C-5.031875 9.041875 -6.00125 9.02125 -7 9 C-7.33 9.99 -7.66 10.98 -8 12 C-8 11.34 -8 10.68 -8 10 C-12.33522216 10.41992964 -16.66763812 10.86409385 -21 11.3125 C-22.22074219 11.43044922 -23.44148438 11.54839844 -24.69921875 11.66992188 C-31.28124963 12.36370351 -36.94346652 13.29727194 -43 16 C-39.70841135 16.05905417 -36.41696244 16.09394375 -33.125 16.125 C-32.2071875 16.14175781 -31.289375 16.15851563 -30.34375 16.17578125 C-24.68631296 16.21562236 -19.58748273 15.69517709 -14.08935547 14.33544922 C-12 14 -12 14 -9 15 C-10.12557877 18.37673632 -10.43499439 18.59052027 -13.4375 20.125 C-19.34864994 22.88424414 -25.21963535 23.68289658 -31.5625 22.125 C-34 21 -34 21 -35 20 C-35.763125 20.33 -36.52625 20.66 -37.3125 21 C-40 22 -40 22 -43 22 C-43 22.66 -43 23.32 -43 24 C-43.69867188 23.9278125 -44.39734375 23.855625 -45.1171875 23.78125 C-46.02726562 23.6884375 -46.93734375 23.595625 -47.875 23.5 C-48.77992187 23.4071875 -49.68484375 23.314375 -50.6171875 23.21875 C-54.11956276 22.80080735 -54.11956276 22.80080735 -57.125 24.5 C-61.06314605 26.5546849 -63.57854959 26.28525487 -68 26 C-68.99 25.67 -69.98 25.34 -71 25 C-72.55266653 24.8535286 -74.10995662 24.75305926 -75.66796875 24.68359375 C-76.56064453 24.64169922 -77.45332031 24.59980469 -78.37304688 24.55664062 C-79.30181641 24.51732422 -80.23058594 24.47800781 -81.1875 24.4375 C-82.59805664 24.37272461 -82.59805664 24.37272461 -84.03710938 24.30664062 C-86.35792854 24.20061335 -88.67885325 24.09854971 -91 24 C-91 23.34 -91 22.68 -91 22 C-91.556875 21.92523438 -92.11375 21.85046875 -92.6875 21.7734375 C-98.2932157 20.80758784 -101.81434926 19.0548623 -106.203125 15.46484375 C-108.33615199 13.72596306 -110.60428568 12.3475893 -113 11 C-112.67 10.34 -112.34 9.68 -112 9 C-103.05264014 9.20851898 -95.31183444 11.59845141 -86.9140625 14.38330078 C-82.65747757 15.75474638 -78.3263762 16.87257569 -74 18 C-74 15.36 -74 12.72 -74 10 C-61.7899338 7.66245792 -49.54958379 5.54377224 -37.26412964 3.64413452 C-35.86182848 3.42673233 -34.45989414 3.20694775 -33.05838013 2.98452759 C-22.09432393 1.25041246 -11.11872687 0 0 0 Z " fill="#8A7852" transform="translate(123,121)"/>
<path d="M0 0 C8.58 0 17.16 0 26 0 C29.74193548 21.51612903 29.74193548 21.51612903 27 27 C26.34 27 25.68 27 25 27 C25 27.66 25 28.32 25 29 C15.43 29 5.86 29 -4 29 C-7.873425 21.25315001 -2.22577267 7.75430478 0 0 Z " fill="#D14A4A" transform="translate(168,91)"/>
<path d="M0 0 C0.99 0 1.98 0 3 0 C3.84725421 3.1839633 4.67522972 6.37264523 5.5 9.5625 C5.73847656 10.45775391 5.97695312 11.35300781 6.22265625 12.27539062 C7.50356508 17.27093508 8.48190459 21.79944628 8 27 C7.34 27.99 6.68 28.98 6 30 C5.5832448 32.95788569 5.5832448 32.95788569 6 36 C6.49467773 36.58048096 6.98935547 37.16096191 7.49902344 37.7590332 C9.59014681 40.88109265 9.35649481 43.18562642 9.328125 46.91796875 C9.32625183 47.57581863 9.32437866 48.23366852 9.32244873 48.91145325 C9.31574812 50.29575706 9.30187313 51.68004258 9.28125 53.06420898 C9.24995187 55.19076993 9.24026293 57.3165904 9.234375 59.44335938 C9.16359463 69.83640537 9.16359463 69.83640537 8 71 C5.1156618 71.08865208 2.25537842 71.11521296 -0.62890625 71.09765625 C-1.92525246 71.09553383 -1.92525246 71.09553383 -3.24778748 71.09336853 C-6.01939292 71.08775239 -8.7909188 71.07519719 -11.5625 71.0625 C-13.4368478 71.05748708 -15.31119685 71.05292381 -17.18554688 71.04882812 C-21.79039544 71.03777772 -26.39518421 71.0205023 -31 71 C-31.33 70.01 -31.66 69.02 -32 68 C-30.9805127 67.98541748 -29.96102539 67.97083496 -28.91064453 67.95581055 C-25.13456834 67.89791534 -21.35909404 67.82068335 -17.58349609 67.73754883 C-15.94817866 67.70425786 -14.31274518 67.67623894 -12.67724609 67.65356445 C-10.32859757 67.62009372 -7.98101663 67.56778564 -5.6328125 67.51171875 C-4.89942657 67.50532883 -4.16604065 67.4989389 -3.41043091 67.49235535 C-1.12675244 67.46005457 -1.12675244 67.46005457 2 67 C5.98002224 61.02996664 4.27687379 52.78567214 3 46 C2.814375 45.13375 2.62875 44.2675 2.4375 43.375 C2 41 2 41 2 37 C-8.23 37 -18.46 37 -29 37 C-29 34.36 -29 31.72 -29 29 C-19.76 29 -10.52 29 -1 29 C-1 28.34 -1 27.68 -1 27 C-0.34 27 0.32 27 1 27 C1.12224626 17.9401941 0.83930594 9.02253886 0 0 Z " fill="#CF9848" transform="translate(194,91)"/>
<path d="M0 0 C5.94 0 11.88 0 18 0 C18.10482832 10.06351843 17.72955042 19.96868172 17 30 C14.56242587 30.02698422 12.12515085 30.04683099 9.6875 30.0625 C8.99720703 30.07087891 8.30691406 30.07925781 7.59570312 30.08789062 C4.4516975 30.10307906 2.00579981 30.00193327 -1 29 C-1.14993071 19.27116304 -0.67478081 9.69997412 0 0 Z " fill="#DCC58C" transform="translate(90,18)"/>
<path d="M0 0 C0.70511719 0.51175781 1.41023438 1.02351562 2.13671875 1.55078125 C5.75143625 3.38033131 8.86676649 3.33475704 12.8125 3.1875 C13.50537109 3.17396484 14.19824219 3.16042969 14.91210938 3.14648438 C16.60841265 3.11138845 18.30431136 3.05758943 20 3 C20 3.99 20 4.98 20 6 C16.62028898 9.37971102 6.67119309 8.9667093 2.05859375 9.05859375 C0.40622157 9.02075317 -1.24612508 8.98177219 -2.8984375 8.94140625 C-5.83374625 9.02324571 -8.26077081 9.98767617 -11 11 C-13.65894007 11.42584587 -16.32283469 11.6977394 -19 12 C-20.051875 12.3403125 -20.051875 12.3403125 -21.125 12.6875 C-23 13 -23 13 -26.0625 11.9375 C-27.031875 11.628125 -28.00125 11.31875 -29 11 C-29.99 11.66 -30.98 12.32 -32 13 C-32.66 12.67 -33.32 12.34 -34 12 C-34 11.01 -34 10.02 -34 9 C-37.63 9.33 -41.26 9.66 -45 10 C-45.33 9.01 -45.66 8.02 -46 7 C-46.99 7.33 -47.98 7.66 -49 8 C-50.56118428 8.06740865 -52.1250252 8.08514456 -53.6875 8.0625 C-54.89986328 8.04896484 -54.89986328 8.04896484 -56.13671875 8.03515625 C-57.05904297 8.01775391 -57.05904297 8.01775391 -58 8 C-58 7.01 -58 6.02 -58 5 C-59.8253125 5.309375 -59.8253125 5.309375 -61.6875 5.625 C-65.33498727 6.07123515 -67.79839616 6.03738426 -71 4 C-71.62890625 1.91796875 -71.62890625 1.91796875 -72 0 C-70.22880197 0.14133499 -68.45804713 0.28823208 -66.6875 0.4375 C-65.70136719 0.51871094 -64.71523437 0.59992188 -63.69921875 0.68359375 C-61 1 -61 1 -58 2 C-58 2.66 -58 3.32 -58 4 C-57.40985107 3.99476318 -56.81970215 3.98952637 -56.21166992 3.98413086 C-53.53695745 3.96333953 -50.86226199 3.95033299 -48.1875 3.9375 C-47.25873047 3.92912109 -46.32996094 3.92074219 -45.37304688 3.91210938 C-44.48037109 3.90888672 -43.58769531 3.90566406 -42.66796875 3.90234375 C-41.43469849 3.89448853 -41.43469849 3.89448853 -40.17651367 3.88647461 C-38 4 -38 4 -35 5 C-29.11885512 5.62019926 -29.11885512 5.62019926 -24.1875 2.8125 C-21 1 -21 1 -18.18359375 1.40234375 C-15.41046282 2.17088706 -12.70447998 3.01830264 -10 4 C-10 3.34 -10 2.68 -10 2 C-8.71211992 1.46987262 -7.41953322 0.9511671 -6.125 0.4375 C-5.40570313 0.14746094 -4.68640625 -0.14257812 -3.9453125 -0.44140625 C-2 -1 -2 -1 0 0 Z " fill="#AE4842" transform="translate(90,141)"/>
<path d="M0 0 C1.98 0 3.96 0 6 0 C6.23847656 0.64453125 6.47695313 1.2890625 6.72265625 1.953125 C7.80384916 4.18941814 7.80384916 4.18941814 10.05859375 4.609375 C10.84363281 4.65578125 11.62867188 4.7021875 12.4375 4.75 C13.21996094 4.80671875 14.00242187 4.8634375 14.80859375 4.921875 C16.53815968 4.9835351 18.26933531 5 20 5 C20 5.99 20 6.98 20 8 C25.94 7.505 25.94 7.505 32 7 C32.495 7.99 32.495 7.99 33 9 C36.63 9 40.26 9 44 9 C44 10.32 44 11.64 44 13 C42.35 13 40.7 13 39 13 C39 15.97 39 18.94 39 22 C32.61566219 21.33831793 26.73747103 19.53613435 20.625 17.625 C19.635 17.32078125 18.645 17.0165625 17.625 16.703125 C11.72234977 14.88093482 5.853116 12.97527517 0 11 C0 7.37 0 3.74 0 0 Z " fill="#D2B67D" transform="translate(12,141)"/>
<path d="M0 0 C1.12494873 0.33322266 2.24989746 0.66644531 3.40893555 1.00976562 C7.59086656 2.24656049 11.77536695 3.47445623 15.96069336 4.69970703 C17.77032418 5.23081723 19.57925323 5.76432472 21.38745117 6.30029297 C23.98955539 7.07112791 26.59407761 7.83325124 29.19921875 8.59375 C30.40731453 8.95466736 30.40731453 8.95466736 31.63981628 9.32287598 C35.52524713 10.44816455 38.90761693 11.31562639 43 11 C41.68 11.33 40.36 11.66 39 12 C39 14.64 39 17.28 39 20 C28.86296655 18.62307274 19.15526597 15.57581415 9.36914062 12.6953125 C6.25076949 11.78011042 3.12612888 10.88829892 0 10 C0 6.7 0 3.4 0 0 Z " fill="#D4B57C" transform="translate(10,119)"/>
<path d="M0 0 C-1.12557877 3.37673632 -1.43499439 3.59052027 -4.4375 5.125 C-10.34864994 7.88424414 -16.21963535 8.68289658 -22.5625 7.125 C-25 6 -25 6 -26 5 C-26.763125 5.33 -27.52625 5.66 -28.3125 6 C-31 7 -31 7 -34 7 C-34 7.66 -34 8.32 -34 9 C-34.69867188 8.9278125 -35.39734375 8.855625 -36.1171875 8.78125 C-37.48230469 8.64203125 -37.48230469 8.64203125 -38.875 8.5 C-40.23238281 8.36078125 -40.23238281 8.36078125 -41.6171875 8.21875 C-45.11956276 7.80080735 -45.11956276 7.80080735 -48.125 9.5 C-52.06314605 11.5546849 -54.57854959 11.28525487 -59 11 C-59.99 10.67 -60.98 10.34 -62 10 C-63.55266653 9.8535286 -65.10995662 9.75305926 -66.66796875 9.68359375 C-67.56064453 9.64169922 -68.45332031 9.59980469 -69.37304688 9.55664062 C-70.30181641 9.51732422 -71.23058594 9.47800781 -72.1875 9.4375 C-73.12787109 9.39431641 -74.06824219 9.35113281 -75.03710938 9.30664062 C-77.35792854 9.20061335 -79.67885325 9.09854971 -82 9 C-82 8.67 -82 8.34 -82 8 C-81.43716309 7.9906543 -80.87432617 7.98130859 -80.29443359 7.97167969 C-63.24837447 7.73381879 -63.24837447 7.73381879 -47 3 C-46.34 2.01 -45.68 1.02 -45 0 C-44.44957031 0.0721875 -43.89914063 0.144375 -43.33203125 0.21875 C-36.64073811 0.96568505 -29.97613674 1.14070541 -23.25 1.1875 C-21.90192261 1.20683594 -21.90192261 1.20683594 -20.52661133 1.2265625 C-13.47565083 1.23701127 -6.79876309 -1.6582349 0 0 Z " fill="#34D421" transform="translate(114,136)"/>
<path d="M0 0 C8.22838273 0.19176316 15.37877446 2.16048843 23.10546875 4.74609375 C31.02561357 7.32612594 37.67946784 8.27419575 46 8.125 C46.96550781 8.11597656 47.93101563 8.10695312 48.92578125 8.09765625 C51.28412099 8.07430635 53.64192286 8.04156047 56 8 C56 8.66 56 9.32 56 10 C42.56436513 15.05812136 25.59142363 17.22585934 12.08984375 11.2109375 C9.01896014 9.431547 6.60365618 7.41768074 4 5 C2.35581617 3.96344932 0.69669715 2.94815429 -1 2 C-0.67 1.34 -0.34 0.68 0 0 Z " fill="#AC9565" transform="translate(11,130)"/>
<path d="M0 0 C8.58 0 17.16 0 26 0 C26 2.64 26 5.28 26 8 C17.42 8 8.84 8 0 8 C0 5.36 0 2.72 0 0 Z " fill="#DCBD88" transform="translate(168,135)"/>
<path d="M0 0 C1.77119803 0.14133499 3.54195287 0.28823208 5.3125 0.4375 C6.29863281 0.51871094 7.28476562 0.59992188 8.30078125 0.68359375 C11 1 11 1 14 2 C14 2.66 14 3.32 14 4 C14.59014893 3.98952637 15.18029785 3.97905273 15.78833008 3.96826172 C18.46301004 3.92667956 21.13762197 3.9006671 23.8125 3.875 C25.2056543 3.84986328 25.2056543 3.84986328 26.62695312 3.82421875 C27.51962891 3.81777344 28.41230469 3.81132812 29.33203125 3.8046875 C30.15421143 3.79421387 30.9763916 3.78374023 31.82348633 3.77294922 C34 4 34 4 37 6 C36.67 6.99 36.34 7.98 36 9 C31.545 9.495 31.545 9.495 27 10 C26.67 9.01 26.34 8.02 26 7 C25.01 7.33 24.02 7.66 23 8 C21.43881572 8.06740865 19.8749748 8.08514456 18.3125 8.0625 C17.10013672 8.04896484 17.10013672 8.04896484 15.86328125 8.03515625 C14.94095703 8.01775391 14.94095703 8.01775391 14 8 C14 7.01 14 6.02 14 5 C12.1746875 5.309375 12.1746875 5.309375 10.3125 5.625 C6.66501273 6.07123515 4.20160384 6.03738426 1 4 C0.37109375 1.91796875 0.37109375 1.91796875 0 0 Z " fill="#954138" transform="translate(18,141)"/>
<path d="M0 0 C0 0.66 0 1.32 0 2 C-1.58199631 2.64910154 -3.16565724 3.29414694 -4.75 3.9375 C-5.63171875 4.29714844 -6.5134375 4.65679687 -7.421875 5.02734375 C-13.16750109 7.19501178 -18.40995147 7.18336835 -24.5 7.1875 C-25.45003906 7.19974609 -26.40007812 7.21199219 -27.37890625 7.22460938 C-28.29542969 7.22654297 -29.21195313 7.22847656 -30.15625 7.23046875 C-31.40631836 7.23663208 -31.40631836 7.23663208 -32.68164062 7.24291992 C-35.19784261 6.97926986 -36.82646384 6.26216419 -39 5 C-36.87226057 4.51954271 -34.74396517 4.04144493 -32.61328125 3.57421875 C-30.96268068 3.21153073 -29.31392158 2.8402598 -27.66796875 2.45703125 C-18.57133285 0.45064224 -9.30066588 -0.08455151 0 0 Z " fill="#C2A672" transform="translate(115,131)"/>
<path d="M0 0 C8.91 0 17.82 0 27 0 C27.33 1.65 27.66 3.3 28 5 C18.43 5 8.86 5 -1 5 C-0.67 3.35 -0.34 1.7 0 0 Z " fill="#47221E" transform="translate(169,86)"/>
<path d="M0 0 C5.28 0 10.56 0 16 0 C16 2.64 16 5.28 16 8 C10.72 8 5.44 8 0 8 C0 5.36 0 2.72 0 0 Z " fill="#DCBD89" transform="translate(173,145)"/>
<path d="M0 0 C10.55382986 0.04743294 20.12566476 3.65398174 30 7 C30 7.66 30 8.32 30 9 C26.94306678 10.52846661 24.37015453 10.23242445 21 10 C20.36320312 9.49726563 19.72640625 8.99453125 19.0703125 8.4765625 C16.49381578 6.63898559 15.34730234 6.81921537 12.25 7.125 C6.61995126 7.34218289 3.34925048 5.40164842 -1 2 C-0.67 1.34 -0.34 0.68 0 0 Z " fill="#AC4542" transform="translate(11,130)"/>
<path d="M0 0 C3.125 -0.1875 3.125 -0.1875 6 0 C3.79292433 5.48130881 -0.9326315 8.30726696 -6 11 C-9.94668845 11.81974768 -13.17071088 11.27642971 -17 10 C-18.55266653 9.8535286 -20.10995662 9.75305926 -21.66796875 9.68359375 C-22.56064453 9.64169922 -23.45332031 9.59980469 -24.37304688 9.55664062 C-25.30181641 9.51732422 -26.23058594 9.47800781 -27.1875 9.4375 C-28.12787109 9.39431641 -29.06824219 9.35113281 -30.03710938 9.30664062 C-32.35792854 9.20061335 -34.67885325 9.09854971 -37 9 C-37 8.67 -37 8.34 -37 8 C-36.43716309 7.9906543 -35.87432617 7.98130859 -35.29443359 7.97167969 C-18.24837447 7.73381879 -18.24837447 7.73381879 -2 3 C-1.34 2.01 -0.68 1.02 0 0 Z " fill="#2AC319" transform="translate(69,136)"/>
<path d="M0 0 C0.82741699 0.05236816 1.65483398 0.10473633 2.50732422 0.15869141 C3.85117188 0.23603516 3.85117188 0.23603516 5.22216797 0.31494141 C6.15931641 0.37939453 7.09646484 0.44384766 8.06201172 0.51025391 C9.00689453 0.56697266 9.95177734 0.62369141 10.92529297 0.68212891 C13.26327653 0.82382488 15.60022116 0.97525174 17.93701172 1.13525391 C16.61701172 2.45525391 15.29701172 3.77525391 13.93701172 5.13525391 C12.94701172 4.80525391 11.95701172 4.47525391 10.93701172 4.13525391 C9.25624941 4.76553977 7.58905628 5.43313497 5.93701172 6.13525391 C4.94701172 6.13525391 3.95701172 6.13525391 2.93701172 6.13525391 C2.93701172 6.79525391 2.93701172 7.45525391 2.93701172 8.13525391 C-0.36298828 7.80525391 -3.66298828 7.47525391 -7.06298828 7.13525391 C-3.04773475 0.19981598 -3.04773475 0.19981598 0 0 Z " fill="#62B13E" transform="translate(77.06298828125,136.86474609375)"/>
<path d="M0 0 C0.99 0.33 1.98 0.66 3 1 C2.45136137 7.7857936 1.45732062 14.35009036 0 21 C-1.32 21.33 -2.64 21.66 -4 22 C-2.38297872 2.38297872 -2.38297872 2.38297872 0 0 Z " fill="#DCBC88" transform="translate(170,93)"/>
<path d="M0 0 C1.546875 0.680625 1.546875 0.680625 3.125 1.375 C4.58075929 1.92354698 6.03918776 2.46505467 7.5 3 C8.69625 3.45375 9.8925 3.9075 11.125 4.375 C11.125 4.705 11.125 5.035 11.125 5.375 C1.225 5.375 -8.675 5.375 -18.875 5.375 C-18.875 4.715 -18.875 4.055 -18.875 3.375 C-18.22273438 3.33761719 -17.57046875 3.30023438 -16.8984375 3.26171875 C-12.61999207 2.93988878 -9.48068598 2.6894908 -5.625 0.6875 C-2.875 -0.625 -2.875 -0.625 0 0 Z " fill="#CFBC7F" transform="translate(113.875,139.625)"/>
<path d="M0 0 C0.72018311 0.16298584 1.44036621 0.32597168 2.18237305 0.49389648 C4.89402117 0.98096403 7.33219353 1.11452642 10.08203125 1.09765625 C11.01337891 1.09443359 11.94472656 1.09121094 12.90429688 1.08789062 C14.34385742 1.07532227 14.34385742 1.07532227 15.8125 1.0625 C16.79154297 1.05798828 17.77058594 1.05347656 18.77929688 1.04882812 C21.18626111 1.03708684 23.59309857 1.02066419 26 1 C26 1.66 26 2.32 26 3 C20.47239641 5.10575375 15.93002267 6.37851209 10 6 C10 5.34 10 4.68 10 4 C8.72125 4.020625 7.4425 4.04125 6.125 4.0625 C2.25 4.125 2.25 4.125 0 3 C0 2.01 0 1.02 0 0 Z " fill="#BCA26E" transform="translate(41,137)"/>
<path d="M0 0 C0.70125 0.00515625 1.4025 0.0103125 2.125 0.015625 C2.82625 0.01046875 3.5275 0.0053125 4.25 0 C6.125 0.265625 6.125 0.265625 8.125 2.265625 C7.79528521 5.56277293 7.5023161 6.8883089 5.125 9.265625 C2.5 9.390625 2.5 9.390625 0.125 9.265625 C0.021875 8.481875 -0.08125 7.698125 -0.1875 6.890625 C-0.65095022 3.93517319 -0.65095022 3.93517319 -3.875 2.265625 C-1.875 0.265625 -1.875 0.265625 0 0 Z " fill="#782D2C" transform="translate(59.875,109.734375)"/>
<path d="M0 0 C1.99788438 0.34578768 3.99759451 0.68143549 6 1 C6 1.66 6 2.32 6 3 C6.99 3.33 7.98 3.66 9 4 C5.58340509 4.05816623 2.16693795 4.09365195 -1.25 4.125 C-2.70212891 4.15013672 -2.70212891 4.15013672 -4.18359375 4.17578125 C-5.58544922 4.18544922 -5.58544922 4.18544922 -7.015625 4.1953125 C-7.87446289 4.20578613 -8.73330078 4.21625977 -9.61816406 4.22705078 C-12.17903596 3.98293323 -13.79511029 3.28990512 -16 2 C-15.38511719 1.86722656 -14.77023438 1.73445312 -14.13671875 1.59765625 C-13.32847656 1.42105469 -12.52023438 1.24445313 -11.6875 1.0625 C-10.88699219 0.88847656 -10.08648437 0.71445313 -9.26171875 0.53515625 C-3.17099669 -0.90599906 -3.17099669 -0.90599906 0 0 Z " fill="#AC9565" transform="translate(92,134)"/>
<path d="M0 0 C0.33 0.66 0.66 1.32 1 2 C4.63 2 8.26 2 12 2 C12 3.32 12 4.64 12 6 C3.99819339 6.54249536 -2.46595398 4.60838688 -10 2 C-10 1.67 -10 1.34 -10 1 C-3.375 0 -3.375 0 0 0 Z " fill="#D9C08A" transform="translate(44,148)"/>
<path d="M0 0 C0 1.65 0 3.3 0 5 C-0.969375 4.690625 -1.93875 4.38125 -2.9375 4.0625 C-7.23664491 2.82032903 -11.55342634 2.38315147 -16 2 C-16 1.34 -16 0.68 -16 0 C-16.66 -0.33 -17.32 -0.66 -18 -1 C-5.33029613 -2.51708428 -5.33029613 -2.51708428 0 0 Z " fill="#C1B680" transform="translate(60,114)"/>
<path d="M0 0 C0.99 0.33 1.98 0.66 3 1 C2.34 3.31 1.68 5.62 1 8 C1.66 8 2.32 8 3 8 C3.33 6.35 3.66 4.7 4 3 C4.33 3 4.66 3 5 3 C4.67 5.31 4.34 7.62 4 10 C4.66 10 5.32 10 6 10 C6.33 7.03 6.66 4.06 7 1 C7.66 1 8.32 1 9 1 C9.36923077 7.4 9.36923077 7.4 7.5 10.4375 C7.005 10.953125 6.51 11.46875 6 12 C3.625 11.6875 3.625 11.6875 1 11 C-1.30441554 7.54337669 -1.25860135 6.05142119 -1 2 C-0.67 1.34 -0.34 0.68 0 0 Z " fill="#C99445" transform="translate(147,21)"/>
<path d="M0 0 C1.65 0 3.3 0 5 0 C6.31625194 2.63250388 5.74813658 3.80179056 5.0625 6.625 C4.86785156 7.44226563 4.67320312 8.25953125 4.47265625 9.1015625 C4.23869141 10.04128906 4.23869141 10.04128906 4 11 C3.34 11 2.68 11 2 11 C2 9.68 2 8.36 2 7 C1.67 7.66 1.34 8.32 1 9 C0.34 9 -0.32 9 -1 9 C-1.07427838 5.65747276 -1.06546953 3.1964086 0 0 Z " fill="#A67A39" transform="translate(149,20)"/>
<path d="M0 0 C6.37931034 0.49071618 6.37931034 0.49071618 9.4375 3 C11 5 11 5 11 6 C9.54077307 5.88590407 8.08259402 5.75834456 6.625 5.625 C5.40683594 5.52058594 5.40683594 5.52058594 4.1640625 5.4140625 C2 5 2 5 0 3 C0 2.01 0 1.02 0 0 Z " fill="#B44744" transform="translate(18,141)"/>
<path d="M0 0 C1.47919922 0.06960937 1.47919922 0.06960937 2.98828125 0.140625 C3.98214844 0.17671875 4.97601563 0.2128125 6 0.25 C7.13888672 0.31960937 7.13888672 0.31960937 8.30078125 0.390625 C6.27881958 2.41258667 5.04213639 3.06613858 2.42578125 4.078125 C1.40871094 4.48611328 1.40871094 4.48611328 0.37109375 4.90234375 C-2.01029657 5.46399241 -3.40352066 5.15757346 -5.69921875 4.390625 C-4.03190196 1.4998505 -3.38689549 0.49014407 0 0 Z " fill="#28E11A" transform="translate(81.69921875,138.609375)"/>
<path d="M0 0 C3.12910468 1.25164187 4.92874253 3.42801274 7.1875 5.875 C5.929375 5.75125 4.67125 5.6275 3.375 5.5 C2.31345703 5.39558594 2.31345703 5.39558594 1.23046875 5.2890625 C-0.8125 4.875 -0.8125 4.875 -3.8125 2.875 C-3.8125 2.215 -3.8125 1.555 -3.8125 0.875 C-1.8125 -0.125 -1.8125 -0.125 0 0 Z " fill="#A2875D" transform="translate(26.8125,136.125)"/>
<path d="M0 0 C-3.41755889 4.76017131 -3.41755889 4.76017131 -6.125 5.875 C-8 6 -8 6 -10 5 C-8.20177069 -0.39468792 -5.09771267 -0.22656501 0 0 Z " fill="#1FA313" transform="translate(101,138)"/>
<path d="M0 0 C4.29 0.33 8.58 0.66 13 1 C12.67 1.66 12.34 2.32 12 3 C10.8553125 2.9071875 10.8553125 2.9071875 9.6875 2.8125 C6.95474688 2.74101915 6.95474688 2.74101915 5.1875 4.5 C4.795625 4.995 4.40375 5.49 4 6 C3.71125 5.38125 3.4225 4.7625 3.125 4.125 C2.06279958 1.86674235 2.06279958 1.86674235 0 0 Z " fill="#D5BA83" transform="translate(64,109)"/>
<path d="M0 0 C0.33 0.99 0.66 1.98 1 3 C-2.3 2.67 -5.6 2.34 -9 2 C-8 0 -8 0 -6.1875 -0.6875 C-3.7469079 -1.03615601 -2.27793592 -0.94259417 0 0 Z " fill="#CFB982" transform="translate(93,114)"/>
<path d="M0 0 C5.94 1.485 5.94 1.485 12 3 C12 3.33 12 3.66 12 4 C10.37509046 4.02698189 8.75005367 4.04638757 7.125 4.0625 C5.76761719 4.07990234 5.76761719 4.07990234 4.3828125 4.09765625 C2 4 2 4 0 3 C0 2.01 0 1.02 0 0 Z " fill="#C5A672" transform="translate(41,137)"/>
<path d="M0 0 C-0.66 0 -1.32 0 -2 0 C0.52956528 3.0916909 3.22454612 3.90931332 7 5 C3.67529121 6.10823626 3.06691853 5.94327361 -0.0625 4.75 C-0.75472656 4.49734375 -1.44695313 4.2446875 -2.16015625 3.984375 C-4 3 -4 3 -6 0 C-3 -1 -3 -1 0 0 Z " fill="#BDA16E" transform="translate(25,137)"/>
<path d="M0 0 C2.475 0.495 2.475 0.495 5 1 C5 2.65 5 4.3 5 6 C2.525 5.01 2.525 5.01 0 4 C0 2.68 0 1.36 0 0 Z " fill="#B3825F" transform="translate(55,113)"/>
<path d="M0 0 C3.96 0 7.92 0 12 0 C10.68 1.32 9.36 2.64 8 4 C7.34 3.67 6.68 3.34 6 3 C6.33 2.34 6.66 1.68 7 1 C4.69 1 2.38 1 0 1 C0 0.67 0 0.34 0 0 Z " fill="#4D9B2F" transform="translate(83,138)"/>
<path d="M0 0 C2.97 0.495 2.97 0.495 6 1 C6 1.66 6 2.32 6 3 C3.36 3 0.72 3 -2 3 C-1.34 2.01 -0.68 1.02 0 0 Z " fill="#65302A" transform="translate(73,149)"/>
<path d="M0 0 C2.625 0.375 2.625 0.375 5 1 C5.33 2.32 5.66 3.64 6 5 C5.01 5.495 5.01 5.495 4 6 C4 5.01 4 4.02 4 3 C1.03 2.505 1.03 2.505 -2 2 C-1.34 1.34 -0.68 0.68 0 0 Z " fill="#D1BA81" transform="translate(101,115)"/>
</svg>
